SplineFontDB: 3.0
FontName: NiNeSegment
FullName: NiNeSegment
FamilyName: NiNeSegment
Weight: Medium
Copyright: Copyright (c) 2019, Kiichiro Yamanobe,U-Tokkuri-PC\\Kiichiro,S-1-5-21-3
UComments: "2013-11-24: Created with FontForge (http://fontforge.org)" 
Version: 007.001
ItalicAngle: 0
UnderlinePosition: -200
UnderlineWidth: 100
Ascent: 1638
Descent: 410
LayerCount: 2
Layer: 0 0 "+gMyXYgAA"  1
Layer: 1 0 "+Uk2XYgAA"  0
XUID: [1021 687 1084785680 14928746]
FSType: 0
OS2Version: 0
OS2_WeightWidthSlopeOnly: 0
OS2_UseTypoMetrics: 1
CreationTime: 1385260552
ModificationTime: 1553872682
PfmFamily: 17
TTFWeight: 500
TTFWidth: 5
LineGap: 0
VLineGap: 0
OS2TypoAscent: 0
OS2TypoAOffset: 1
OS2TypoDescent: 0
OS2TypoDOffset: 1
OS2TypoLinegap: 0
OS2WinAscent: 1638
OS2WinAOffset: 0
OS2WinDescent: 410
OS2WinDOffset: 0
HheadAscent: 1638
HheadAOffset: 0
HheadDescent: 410
HheadDOffset: 0
OS2Vendor: 'PfEd'
OS2CodePages: a000000b.d4010000
Lookup: 260 0 0 "'mark' +MN4w/DCvMG5PTX9uYwdbmgAA lookup 1"  {"'mark' +MN4w/DCvMG5PTX9uYwdbmgAA lookup 1-1"  } ['mark' ('DFLT' <'dflt' > ) ]
Lookup: 260 0 0 "'mark' +MN4w/DCvMG5PTX9uYwdbmgAA lookup 0"  {"'mark' +MN4w/DCvMG5PTX9uYwdbmgAA lookup 0-1"  } ['mark' ('DFLT' <'dflt' > ) ]
MarkAttachClasses: 1
DEI: 91125
Encoding: UnicodeBmp
UnicodeInterp: none
NameList: AGL For New Fonts
DisplaySize: -48
AntiAlias: 1
FitToEm: 1
WinInfo: 896 16 8
BeginPrivate: 0
EndPrivate
AnchorClass2: "Bottom"  "'mark' +MN4w/DCvMG5PTX9uYwdbmgAA lookup 1-1" "Top"  "'mark' +MN4w/DCvMG5PTX9uYwdbmgAA lookup 0-1" 
BeginChars: 65536 757

StartChar: uniEFE0
Encoding: 61408 61408 5
Width: 1229
VWidth: 2000
Flags: HW
LayerCount: 2
Back
SplineSet
785 131 m 5
 234.485351562 535.255859375 l 5
 312.022460938 640.844726562 l 5
 862.536132812 236.588867188 l 5
 785 131 l 5
891 719 m 1
 930 1358 l 1
 1061 1350 l 1
 1022 711 l 1
 891 719 l 1
851 61 m 1
 890 700 l 1
 1021 692 l 1
 982 53 l 1
 851 61 l 1
193 640 m 1
 213 640 l 1
 213 620 l 1
 193 620 l 1
 193 640 l 1
115 719 m 1
 154 1358 l 1
 285 1350 l 1
 246 711 l 1
 115 719 l 1
75 61 m 1
 114 700 l 1
 245 692 l 1
 206 53 l 1
 75 61 l 1
300 1411 m 1
 924 1411 l 1
 916 1280 l 1
 292 1280 l 1
 300 1411 l 1
260 771 m 1
 884 771 l 1
 876 640 l 1
 252 640 l 1
 260 771 l 1
220 131 m 1
 844 131 l 1
 836 0 l 1
 212 0 l 1
 220 131 l 1
EndSplineSet
Fore
SplineSet
1024 100 m 0
 1024 155 1069 200 1124 200 c 0
 1179 200 1224 155 1224 100 c 0
 1224 45 1179 0 1124 0 c 0
 1069 0 1024 45 1024 100 c 0
808 782 m 1
 285 1167 l 1
 292 1280 l 1
 368 1269 l 1
 891 884 l 1
 884 771 l 1
 808 782 l 1
768 142 m 1
 245 527 l 1
 252 640 l 1
 328 629 l 1
 851 244 l 1
 844 131 l 1
 768 142 l 1
891 719 m 1
 930 1358 l 1
 1061 1350 l 1
 1022 711 l 1
 891 719 l 1
851 61 m 1
 890 700 l 1
 1021 692 l 1
 982 53 l 1
 851 61 l 1
115 719 m 1
 154 1358 l 1
 285 1350 l 1
 246 711 l 1
 115 719 l 1
75 61 m 1
 114 700 l 1
 245 692 l 1
 206 53 l 1
 75 61 l 1
300 1411 m 1
 924 1411 l 1
 916 1280 l 1
 370 1280 l 1
 293 1291 l 1
 300 1411 l 1
260 771 m 1
 806 771 l 1
 883 760 l 1
 876 640 l 1
 330 640 l 1
 253 651 l 1
 260 771 l 1
220 131 m 1
 766 131 l 1
 843 120 l 1
 836 0 l 1
 212 0 l 1
 220 131 l 1
EndSplineSet
EndChar

StartChar: uniEFE1
Encoding: 61409 61409 6
Width: 1229
VWidth: 2000
Flags: HW
LayerCount: 2
Fore
SplineSet
300 1411 m 1
 924 1411 l 1
 916 1280 l 1
 370 1280 l 1
 293 1291 l 1
 300 1411 l 1
EndSplineSet
EndChar

StartChar: uniEFE2
Encoding: 61410 61410 7
Width: 1229
VWidth: 2000
Flags: HW
LayerCount: 2
Fore
SplineSet
891 719 m 1
 930 1358 l 1
 1061 1350 l 1
 1022 711 l 1
 891 719 l 1
EndSplineSet
EndChar

StartChar: uniEFE3
Encoding: 61411 61411 8
Width: 1229
VWidth: 2000
Flags: HW
LayerCount: 2
Fore
SplineSet
851 61 m 1
 890 700 l 1
 1021 692 l 1
 982 53 l 1
 851 61 l 1
EndSplineSet
EndChar

StartChar: uniEFE4
Encoding: 61412 61412 9
Width: 1229
VWidth: 2000
Flags: HW
LayerCount: 2
Fore
SplineSet
220 131 m 1
 766 131 l 1
 843 120 l 1
 836 0 l 1
 212 0 l 1
 220 131 l 1
EndSplineSet
EndChar

StartChar: uniEFE5
Encoding: 61413 61413 10
Width: 1229
VWidth: 2000
Flags: HW
LayerCount: 2
Fore
SplineSet
75 61 m 1
 114 700 l 1
 245 692 l 1
 206 53 l 1
 75 61 l 1
EndSplineSet
EndChar

StartChar: uniEFE6
Encoding: 61414 61414 11
Width: 1229
VWidth: 2000
Flags: HW
LayerCount: 2
Fore
SplineSet
115 719 m 1
 154 1358 l 1
 285 1350 l 1
 246 711 l 1
 115 719 l 1
EndSplineSet
EndChar

StartChar: uniEFE7
Encoding: 61415 61415 12
Width: 1229
VWidth: 2000
Flags: HW
LayerCount: 2
Fore
SplineSet
260 771 m 1
 806 771 l 1
 883 760 l 1
 876 640 l 1
 330 640 l 1
 253 651 l 1
 260 771 l 1
EndSplineSet
EndChar

StartChar: uniEFE8
Encoding: 61416 61416 13
Width: 1229
VWidth: 2000
Flags: HW
LayerCount: 2
Fore
SplineSet
808 782 m 1
 285 1167 l 1
 292 1280 l 1
 368 1269 l 1
 891 884 l 1
 884 771 l 1
 808 782 l 1
EndSplineSet
EndChar

StartChar: uniEFE9
Encoding: 61417 61417 14
Width: 1229
VWidth: 2000
Flags: HW
LayerCount: 2
Fore
SplineSet
768 142 m 1
 245 527 l 1
 252 640 l 1
 328 629 l 1
 851 244 l 1
 844 131 l 1
 768 142 l 1
EndSplineSet
EndChar

StartChar: circumflex
Encoding: 710 710 15
Width: 1229
VWidth: 2000
Flags: HW
HStem: 1411 100<384 768>
VStem: 384 384<1411 1511>
AnchorPoint: "Top" 576 1411 mark 0
LayerCount: 2
Back
SplineSet
300 1411 m 1
 924 1411 l 1
 916 1280 l 1
 370 1280 l 1
 293 1291 l 1
 300 1411 l 1
EndSplineSet
Fore
SplineSet
384 1511 m 1
 576 1636 l 5
 768 1511 l 1
 768 1411 l 1
 576 1536 l 5
 384 1411 l 1
 384 1511 l 1
EndSplineSet
EndChar

StartChar: caron
Encoding: 711 711 16
Width: 1229
VWidth: 2000
Flags: HW
HStem: 1411 100<384 768>
VStem: 384 384<1411 1511>
AnchorPoint: "Top" 576 1411 mark 0
LayerCount: 2
Fore
SplineSet
384 1636 m 1
 576 1511 l 1
 768 1636 l 1
 768 1536 l 1
 576 1411 l 1
 384 1536 l 1
 384 1636 l 1
EndSplineSet
EndChar

StartChar: uni02C8
Encoding: 712 712 17
Width: 1229
VWidth: 2000
Flags: HW
HStem: 1411 100<384 768>
VStem: 384 384<1411 1511>
AnchorPoint: "Top" 576 1411 mark 0
LayerCount: 2
Fore
SplineSet
512 1636 m 5
 640 1636 l 5
 640 1436 l 1
 512 1436 l 1
 512 1636 l 5
EndSplineSet
EndChar

StartChar: uni02C9
Encoding: 713 713 18
Width: 1229
VWidth: 2000
Flags: HW
AnchorPoint: "Top" 576 1411 mark 0
LayerCount: 2
Fore
SplineSet
384 1636 m 5
 768 1636 l 5
 768 1536 l 5
 384 1536 l 5
 384 1636 l 5
EndSplineSet
EndChar

StartChar: uni02CA
Encoding: 714 714 19
Width: 1229
VWidth: 2000
Flags: HW
HStem: 1411 100<384 768>
VStem: 384 384<1411 1511>
AnchorPoint: "Top" 576 1411 mark 0
LayerCount: 2
Fore
SplineSet
512 1511 m 1
 768 1636 l 1
 768 1536 l 1
 512 1411 l 1
 512 1511 l 1
EndSplineSet
EndChar

StartChar: uni02CB
Encoding: 715 715 20
Width: 1229
VWidth: 2000
Flags: HW
HStem: 1411 100<384 768>
VStem: 384 384<1411 1511>
AnchorPoint: "Top" 576 1411 mark 0
LayerCount: 2
Fore
SplineSet
384 1636 m 5
 640 1511 l 1
 640 1411 l 1
 384 1536 l 5
 384 1636 l 5
EndSplineSet
EndChar

StartChar: dieresis
Encoding: 168 168 21
Width: 1229
VWidth: 2000
Flags: HW
HStem: 1536 100<384 768>
VStem: 384 384<1536 1636>
AnchorPoint: "Top" 576 1411 mark 0
LayerCount: 2
Fore
SplineSet
640 1636 m 1
 768 1636 l 1
 768 1536 l 1
 640 1536 l 1
 640 1636 l 1
384 1636 m 1
 512 1636 l 1
 512 1536 l 1
 384 1536 l 1
 384 1636 l 1
EndSplineSet
EndChar

StartChar: ring
Encoding: 730 730 22
Width: 1229
VWidth: 2000
Flags: HW
HStem: 1376 260<450.239 701.761> 1446 120<532 620>
VStem: 416 320<1418 1594> 496 160<1462 1550>
AnchorPoint: "Top" 576 1411 mark 0
LayerCount: 2
Fore
SplineSet
496 1506 m 0x50
 496 1462 532 1446 576 1446 c 0
 620 1446 656 1462 656 1506 c 0
 656 1550 620 1566 576 1566 c 0
 532 1566 496 1550 496 1506 c 0x50
416 1506 m 0xa0
 416 1594 488 1636 576 1636 c 0
 664 1636 736 1594 736 1506 c 0
 736 1418 664 1376 576 1376 c 0
 488 1376 416 1418 416 1506 c 0xa0
EndSplineSet
EndChar

StartChar: tilde
Encoding: 732 732 23
Width: 1229
VWidth: 2000
Flags: W
HStem: 1436 200
VStem: 320 512
AnchorPoint: "Top" 576 1411 mark 0
LayerCount: 2
Fore
SplineSet
320 1536 m 1
 480 1636 l 0
 672 1536 l 0
 832 1636 l 1
 832 1536 l 1
 672 1436 l 0
 480 1536 l 0
 320 1436 l 1
 320 1536 l 1
EndSplineSet
EndChar

StartChar: cedilla
Encoding: 184 184 24
Width: 1229
VWidth: 2000
Flags: HW
AnchorPoint: "Bottom" 576 0 mark 0
LayerCount: 2
Fore
SplineSet
512 0 m 1
 640 0 l 1
 640 -96 l 1
 768 -128 l 1
 768 -318 l 1
 640 -384 l 1
 512 -384 l 1
 512 -320 l 1
 672 -224 l 1
 512 -128 l 1
 512 0 l 1
EndSplineSet
EndChar

StartChar: uniEFEA
Encoding: 61418 61418 25
Width: 1229
VWidth: 2000
Flags: HW
LayerCount: 2
Fore
SplineSet
1024 100 m 0
 1024 155 1069 200 1124 200 c 0
 1179 200 1224 155 1224 100 c 0
 1224 45 1179 0 1124 0 c 0
 1069 0 1024 45 1024 100 c 0
EndSplineSet
EndChar

StartChar: breve
Encoding: 728 728 26
Width: 1229
VWidth: 2000
Flags: MW
HStem: 1411 100<384 768>
VStem: 288 576<1411 1511>
AnchorPoint: "Top" 576 1411 mark 0
LayerCount: 2
Fore
SplineSet
288 1636 m 1
 288 1636 442.5 1511 576 1511 c 27
 709.5 1511 864 1636 864 1636 c 1
 864 1536 l 1
 864 1536 709.5 1411 576 1411 c 27
 442.5 1411 288 1536 288 1536 c 1
 288 1636 l 1
EndSplineSet
EndChar

StartChar: hungarumlaut
Encoding: 733 733 27
Width: 1229
VWidth: 2000
Flags: HW
HStem: 1411 100<384 768>
VStem: 384 384<1411 1511>
AnchorPoint: "Top" 576 1411 mark 0
LayerCount: 2
Fore
SplineSet
288 1511 m 1
 544 1636 l 1
 544 1536 l 1
 288 1411 l 1
 288 1511 l 1
608 1511 m 1
 864 1636 l 1
 864 1536 l 1
 608 1411 l 1
 608 1511 l 1
EndSplineSet
EndChar

StartChar: uni02BB
Encoding: 699 699 28
Width: 1229
VWidth: 2000
Flags: W
HStem: 1411 100<384 768>
VStem: 384 384<1411 1511>
AnchorPoint: "Top" 576 1411 mark 0
LayerCount: 2
Fore
SplineSet
640 1636 m 1
 704 1636 l 1
 640 1336 l 1
 512 1336 l 1
 640 1636 l 1
EndSplineSet
EndChar

StartChar: uni02BC
Encoding: 700 700 29
Width: 1229
VWidth: 2000
Flags: MW
AnchorPoint: "Bottom" 1225 1644 mark 0
AnchorPoint: "Top" 576 1411 mark 0
LayerCount: 2
Fore
SplineSet
1152 1636 m 1
 1280 1636 l 1
 1152 1336 l 1
 1088 1336 l 1
 1152 1636 l 1
EndSplineSet
EndChar

StartChar: dotaccent
Encoding: 729 729 30
Width: 1229
VWidth: 2000
Flags: W
HStem: 1536 100<512 640>
VStem: 512 128<1536 1636>
AnchorPoint: "Top" 576 1411 mark 0
LayerCount: 2
Fore
SplineSet
512 1636 m 1
 640 1636 l 1
 640 1536 l 1
 512 1536 l 1
 512 1636 l 1
EndSplineSet
EndChar

StartChar: tonos
Encoding: 900 900 31
Width: 1229
VWidth: 2000
Flags: HMW
AnchorPoint: "Top" 576 1411 mark 0
LayerCount: 2
Fore
SplineSet
0 1508 m 1
 128 1508 l 1
 128 1308 l 1
 0 1308 l 1
 0 1508 l 1
EndSplineSet
EndChar

